<?xml version="1.0" encoding="UTF-8" ?>
<!DOCTYPE svg PUBLIC "-//W3C//DTD SVG 1.1//EN" "http://www.w3.org/Graphics/SVG/1.1/DTD/svg11.dtd">
<svg width="676pt" height="171pt" viewBox="0 0 676 171" version="1.1" xmlns="http://www.w3.org/2000/svg">
<g id="#000000ff">
<path fill="#000000" opacity="1.00" d=" M 154.42 0.00 L 242.04 0.00 C 205.04 37.83 168.23 75.86 131.16 113.61 C 159.78 113.49 188.41 113.60 217.03 113.56 C 197.56 132.74 178.09 151.93 158.52 171.00 L 0.23 171.00 C 36.78 133.43 73.36 95.90 110.00 58.41 C 105.82 58.45 101.64 58.45 97.46 58.43 C 116.43 38.94 135.38 19.43 154.42 0.00 Z" />
<path fill="#000000" opacity="1.00" d=" M 283.68 0.00 L 479.62 0.00 C 460.15 20.13 440.70 40.29 421.26 60.45 C 380.92 60.61 340.59 60.40 300.25 60.55 C 296.17 64.40 291.96 68.11 287.88 71.97 C 287.89 85.83 287.85 99.69 287.91 113.55 C 330.08 113.58 372.26 113.54 414.44 113.57 C 398.64 132.74 382.79 151.87 366.94 171.00 L 251.48 171.00 C 241.98 161.66 232.60 152.19 223.19 142.76 C 223.20 115.65 223.14 88.53 223.22 61.42 C 243.40 40.98 263.47 20.42 283.68 0.00 Z" />
<path fill="#000000" opacity="1.00" d=" M 491.99 0.00 L 675.46 0.00 C 657.37 20.14 639.31 40.31 621.24 60.47 C 583.05 60.54 544.86 60.50 506.67 60.49 C 496.24 70.83 485.84 81.20 475.52 91.65 C 464.34 91.88 453.14 91.70 441.96 91.74 C 441.92 77.84 441.93 63.94 441.95 50.04 C 458.61 33.34 475.29 16.66 491.99 0.00 Z" />
<path fill="#000000" opacity="1.00" d=" M 479.56 95.82 C 489.26 86.08 498.95 76.32 508.74 66.67 C 542.06 66.73 575.38 66.62 608.70 66.73 C 608.64 80.66 608.77 94.58 608.63 108.51 C 587.71 129.26 567.03 150.24 546.12 171.00 L 375.21 171.00 C 390.48 152.87 405.81 134.79 421.13 116.70 C 458.64 116.66 496.14 116.71 533.64 116.68 C 535.02 115.33 536.39 113.96 537.74 112.58 C 500.25 112.55 462.77 112.58 425.29 112.56 C 429.45 106.99 433.59 101.40 437.82 95.88 C 451.73 95.83 465.65 95.95 479.56 95.82 Z" />
<path fill="#000000" opacity="1.00" d=" M 171.01 171.00 C 182.94 159.43 194.93 147.94 206.91 136.42 C 218.90 147.93 230.89 159.43 242.81 171.00 L 171.01 171.00 Z" />
</g>
</svg>
