<svg width="341pt" height="288" viewBox="0 0 341 216" xmlns="http://www.w3.org/2000/svg"><path d="M106.78 6.44c40.41-9 83.37-7.34 122.67 5.9 25.7 8.83 50.44 23.05 67.47 44.65 11.4 14.38 18.45 32.57 17.99 51.05-.39 16.15-6.58 31.82-16.16 44.71-8.65 11.8-19.96 21.4-32.14 29.39 17.83 3.75 36.17 5.3 54.36 4.08 6.67-.37 13.34-.74 20.02-1.08-16.39 7.41-32.46 15.73-49.67 21.13-31.52 10.21-66.1 12.49-98.15 3.32-3.34-1.15-6.8.15-10.18.34-38.56 4.01-78.51-.9-114.01-16.89-22.17-10.11-42.94-25.06-56.12-45.89-9.5-15.1-14.37-33.5-11.61-51.28C3.84 77.95 13.16 61.53 25.72 48.7 47.4 26.44 76.87 13.37 106.78 6.44m4.63 9.22C82.9 21.89 54.75 33.95 33.8 54.75c-12.64 12.6-22.15 29.22-23.2 47.33-1.24 17.12 5.36 34.08 16.05 47.26 16.32 20.26 39.9 33.41 64.29 41.55 31.86 10.49 66.19 12.75 99.33 8.05 1.95-.31 3.79.62 5.65 1.06 31.11 8.82 64.65 6.26 95.04-4.13-17.18-1.32-34.01-5.33-50.36-10.67 12.35-6.45 24.75-13.12 35.2-22.45 14.26-12.25 25.79-28.81 28.47-47.74 2.67-17.07-2.67-34.7-12.72-48.54-14.91-20.65-37.55-34.38-61.1-43.16-37.88-13.8-79.69-15.94-119.04-7.65Z"/><path d="M119.08 87.25c4.3.03 8.6.02 12.91 0-1.73 6.83-3.5 13.64-5.16 20.48 5.75 0 11.5.01 17.26 0 1.66-6.83 3.41-13.64 5.09-20.46 4.32-.01 8.64 0 12.96-.01-4.53 17.9-8.97 35.81-13.44 53.73-4.32.02-8.64.01-12.95.01 1.69-6.84 3.46-13.67 5.09-20.53-5.71-.01-11.42 0-17.12 0-1.75 6.83-3.42 13.68-5.16 20.52-4.31.02-8.63.01-12.94.01 4.52-17.91 8.94-35.84 13.46-53.75ZM168.08 87.25c4.3.02 8.6.02 12.9 0-4.42 17.92-8.94 35.82-13.42 53.73-4.31.03-8.63.02-12.94.02 4.52-17.91 8.94-35.84 13.46-53.75ZM192.99 87.27c4.88-.01 9.76 0 14.63-.01-3.24 11.46-6.23 23-9.44 34.47-4.33 0-8.66 0-12.99.01 2.5-11.51 5.18-22.99 7.8-34.47ZM180.32 140.98c1.09-4.33 2.15-8.66 3.27-12.98 4.34 0 8.68-.01 13.02.02-1.08 4.33-2.15 8.66-3.27 12.98-4.34 0-8.68.01-13.02-.02Z"/><g><path fill="#fff" d="M111.41 15.66c39.35-8.29 81.16-6.15 119.04 7.65 23.55 8.78 46.19 22.51 61.1 43.16 10.05 13.84 15.39 31.47 12.72 48.54-2.68 18.93-14.21 35.49-28.47 47.74-10.45 9.33-22.85 16-35.2 22.45 16.35 5.34 33.18 9.35 50.36 10.67-30.39 10.39-63.93 12.95-95.04 4.13-1.86-.44-3.7-1.37-5.65-1.06-33.14 4.7-67.47 2.44-99.33-8.05-24.39-8.14-47.97-21.29-64.29-41.55-10.69-13.18-17.29-30.14-16.05-47.26 1.05-18.11 10.56-34.73 23.2-47.33 20.95-20.8 49.1-32.86 77.61-39.09m7.67 71.59c-4.52 17.91-8.94 35.84-13.46 53.75 4.31 0 8.63.01 12.94-.01 1.74-6.84 3.41-13.69 5.16-20.52 5.7 0 11.41-.01 17.12 0-1.63 6.86-3.4 13.69-5.09 20.53 4.31 0 8.63.01 12.95-.01 4.47-17.92 8.91-35.83 13.44-53.73-4.32.01-8.64 0-12.96.01-1.68 6.82-3.43 13.63-5.09 20.46-5.76.01-11.51 0-17.26 0 1.66-6.84 3.43-13.65 5.16-20.48-4.31.02-8.61.03-12.91 0m49 0c-4.52 17.91-8.94 35.84-13.46 53.75 4.31 0 8.63.01 12.94-.02 4.48-17.91 9-35.81 13.42-53.73-4.3.02-8.6.02-12.9 0m24.91.02c-2.62 11.48-5.3 22.96-7.8 34.47 4.33-.01 8.66-.01 12.99-.01 3.21-11.47 6.2-23.01 9.44-34.47-4.87.01-9.75 0-14.63.01m-12.67 53.71c4.34.03 8.68.02 13.02.02 1.12-4.32 2.19-8.65 3.27-12.98-4.34-.03-8.68-.02-13.02-.02-1.12 4.32-2.18 8.65-3.27 12.98Z"/></g></svg>